<svg xmlns="http://www.w3.org/2000/svg" width="199" height="30" fill="none"><path fill="#DED2FF" d="M92.52 22.881h-4.665V.308h4.664v22.573ZM82.995 8.676c-1.069-1.07-2.43-1.654-4.082-1.654-2.04 0-3.498.583-4.47 1.946V1.28h-4.665v21.503h4.665v-8.465c0-.973.291-1.751.777-2.335.486-.487 1.264-.779 2.138-.779.778 0 1.458.292 1.944.779.486.486.778 1.167.778 2.043v8.854h4.567v-9.535c0-1.946-.583-3.503-1.652-4.67Z"/><path fill="#DED2FF" fill-rule="evenodd" d="M12.438 9.065V7.508h4.47V22.2c0 2.432-.777 4.281-2.332 5.546-1.555 1.265-3.498 1.849-5.734 1.849-3.498 0-5.928-1.265-7.289-3.698l3.985-2.335c.68 1.265 1.944 1.946 3.499 1.946 1.069 0 1.943-.292 2.624-.876.583-.583.874-1.362.874-2.432v-1.46c-1.069 1.363-2.624 2.044-4.47 2.044-2.138 0-3.985-.779-5.443-2.335C1.165 18.892.484 17.043.484 14.903s.68-3.99 2.138-5.546C4.08 7.8 5.83 7.022 8.065 7.022c1.846 0 3.304.68 4.373 2.043Zm-6.414 8.367c.68.681 1.652.973 2.721.973 1.07 0 1.944-.292 2.721-.973.68-.68 1.07-1.459 1.07-2.627 0-1.07-.39-1.945-1.07-2.627-.68-.68-1.652-.973-2.72-.973-1.07 0-1.945.292-2.722.973-.68.681-1.07 1.46-1.07 2.627 0 1.168.39 2.044 1.07 2.627Z" clip-rule="evenodd"/><path fill="#DED2FF" d="M24.975 7.41v2.725c.292-.973.875-1.751 1.75-2.238.874-.583 1.846-.778 2.915-.778v5.254c-1.166-.195-2.235 0-3.207.584-.972.583-1.458 1.556-1.458 2.919v7.005H20.31V7.411h4.665Z"/><path fill="#DED2FF" fill-rule="evenodd" d="M42.566 7.41v1.46c-1.07-1.265-2.624-1.848-4.568-1.848-2.04 0-3.79.778-5.248 2.335-1.458 1.557-2.138 3.405-2.138 5.74 0 2.335.68 4.281 2.138 5.838 1.458 1.557 3.207 2.335 5.248 2.335 1.944 0 3.499-.584 4.568-1.848v1.46h4.665V7.41h-4.665ZM36.15 17.92c-.68-.681-.971-1.557-.971-2.724 0-1.168.388-2.044.971-2.725.68-.68 1.555-.973 2.625-.973 1.069 0 1.943.292 2.624.973.68.681.971 1.557.971 2.725 0 1.167-.291 2.043-.971 2.724-.68.681-1.555.973-2.624.973-1.07 0-1.944-.292-2.625-.973ZM59.865 7.022c2.04 0 3.79.778 5.248 2.335 1.458 1.557 2.138 3.503 2.138 5.74 0 2.335-.68 4.281-2.138 5.838-1.458 1.557-3.207 2.335-5.248 2.335-2.041 0-3.499-.584-4.568-1.848v7.686h-4.665V7.411h4.665v1.46c.972-1.266 2.527-1.85 4.568-1.85Zm-3.596 10.897c.68.681 1.555.973 2.624.973 1.07 0 1.944-.292 2.624-.973.68-.681 1.07-1.557 1.07-2.724 0-1.168-.39-2.044-1.07-2.725-.68-.68-1.555-.973-2.624-.973-1.069 0-1.944.292-2.624.973-.68.681-.972 1.557-.972 2.725-.097 1.167.292 2.043.972 2.724Z" clip-rule="evenodd"/><path fill="#DED2FF" d="M95.92 22.881h4.666V7.411h-4.665v15.47ZM113.026 7.022c1.652 0 3.012.583 4.081 1.654 1.07 1.167 1.653 2.724 1.653 4.67v9.535h-4.665v-8.854c0-.876-.292-1.557-.778-2.043-.486-.487-1.166-.779-1.943-.779-.875 0-1.653.292-2.139.779-.486.584-.777 1.362-.777 2.335v8.465h-4.665V7.41h4.665v1.46c1.069-1.266 2.527-1.85 4.568-1.85Z"/><path fill="#DED2FF" fill-rule="evenodd" d="M133.143 7.41v1.46c-1.069-1.265-2.527-1.848-4.568-1.848-2.041 0-3.79.778-5.248 2.335-1.457 1.557-2.138 3.405-2.138 5.74 0 2.335.681 4.281 2.138 5.838 1.458 1.557 3.207 2.335 5.248 2.335 1.944 0 3.499-.584 4.568-1.848v7.686h4.665V7.411h-4.665Zm-6.317 10.509c-.68-.681-.972-1.557-.972-2.724 0-1.168.292-2.044.972-2.725.68-.68 1.555-.973 2.624-.973 1.069 0 1.944.292 2.624.973.68.681.972 1.557.972 2.725 0 1.167-.292 2.043-.972 2.724-.68.681-1.555.973-2.624.973-1.069 0-1.944-.292-2.624-.973Z" clip-rule="evenodd"/><g filter="url(#a)"><path fill="url(#b)" fill-rule="evenodd" d="M155.938 6.228c-2.04 0-3.5.58-4.47 1.95V.488h-4.66v21.5h4.66v-8.46c0-.97.29-1.75.78-2.34.49-.49 1.26-.78 2.14-.78.78 0 1.46.29 1.94.78.49.49.78 1.17.78 2.04v8.85h4.57v-9.54c0-1.95-.58-3.5-1.65-4.67-1.07-1.07-2.43-1.65-4.08-1.65l-.01.01Zm19.34 8.87c0 .97-.29 1.75-.78 2.34-.48.49-1.26.78-2.14.78-.78 0-1.46-.29-1.94-.78-.49-.49-.78-1.17-.78-2.04v-8.86h-4.66v9.54c0 1.95.58 3.5 1.65 4.67 1.07 1.07 2.43 1.65 4.08 1.65 2.04 0 3.5-.58 4.57-1.85v1.46h4.66V6.628h-4.66v8.47Zm21.58-6.62c-1.46-1.56-3.21-2.34-5.25-2.34s-3.5.58-4.57 1.85V.308h-4.66v21.7h4.66v-1.46c1.07 1.26 2.53 1.85 4.57 1.85 2.04 0 3.79-.78 5.25-2.34 1.46-1.56 2.14-3.41 2.14-5.74s-.68-4.28-2.14-5.84Zm-3.5 8.47c-.68.68-1.55.97-2.62.97s-1.94-.29-2.62-.97c-.68-.68-.97-1.56-.97-2.72 0-1.16.29-2.04.97-2.72.68-.68 1.55-.97 2.62-.97s1.94.29 2.62.97c.68.68.97 1.56.97 2.72 0 1.16-.29 2.04-.97 2.72Z" clip-rule="evenodd"/></g><defs><linearGradient id="b" x1="199.255" x2="147.065" y1="11.353" y2="11.353" gradientUnits="userSpaceOnUse"><stop stop-color="#9A23E6"/><stop offset="1" stop-color="#671CED"/></linearGradient><filter id="a" width="252.19" height="222.09" x="46.808" y="-99.692" color-interpolation-filters="sRGB" filterUnits="userSpaceOnUse"><feFlood flood-opacity="0" result="BackgroundImageFix"/><feGaussianBlur in="BackgroundImageFix" stdDeviation="50"/><feComposite in2="SourceAlpha" operator="in" result="effect1_backgroundBlur_2076_2"/><feBlend in="SourceGraphic" in2="effect1_backgroundBlur_2076_2" result="shape"/></filter></defs></svg>