<svg xmlns="http://www.w3.org/2000/svg" width="24" height="24" viewBox="0 0 24 24" fill="none">
    <g clip-path="url(#a)" >
        <path fill="#897FAC" transform="scale(0.9) translate(1,1)"
            d="M.192 1.79A1.152 1.152 0 0 1 1.152 0h5.125c.525 0 1.017.277 1.284.727l3.21 5.348a9.72 9.72 0 0 0-5.784 2.902L.192 1.79Zm23.611 0-4.79 7.187a9.72 9.72 0 0 0-5.785-2.902L16.44.727C16.711.277 17.2 0 17.723 0h5.124a1.152 1.152 0 0 1 .96 1.79h-.004ZM3.75 15.75a8.25 8.25 0 1 1 16.5 0 8.25 8.25 0 0 1-16.5 0Zm8.644-4.448a.438.438 0 0 0-.788 0l-1.05 2.128a.432.432 0 0 1-.328.239l-2.353.342a.44.44 0 0 0-.244.75l1.702 1.66c.103.102.15.243.126.388l-.403 2.34a.44.44 0 0 0 .638.463l2.1-1.106a.447.447 0 0 1 .408 0l2.1 1.107a.44.44 0 0 0 .637-.465l-.403-2.339a.448.448 0 0 1 .127-.389l1.701-1.66a.44.44 0 0 0-.244-.75l-2.348-.341a.435.435 0 0 1-.328-.24l-1.05-2.127Z" />
    </g>
    <defs>
        <clipPath id="a">
            <path fill="#fff" d="M0 0h24v24H0z" />
        </clipPath>
    </defs>
</svg>