<svg xmlns="http://www.w3.org/2000/svg" width="25" height="24" fill="none"><path fill="#fff" d="M9.75 1.25c-2.8 0-4.2 0-5.27.545A5 5 0 0 0 2.295 3.98C1.75 5.05 1.75 6.45 1.75 9.25v5.5c0 2.8 0 4.2.545 5.27a5 5 0 0 0 2.185 2.185c1.07.545 2.47.545 5.27.545h5.5c2.8 0 4.2 0 5.27-.545a5 5 0 0 0 2.185-2.185c.545-1.07.545-2.47.545-5.27v-5.5c0-2.8 0-4.2-.545-5.27a5 5 0 0 0-2.185-2.185c-1.07-.545-2.47-.545-5.27-.545h-5.5Z"/><path stroke="#302B44" stroke-linecap="round" stroke-linejoin="round" stroke-width="1.5" d="M11 17a3.51 3.51 0 0 0 3.5-3.5c0-1.924-1.575-3.5-3.5-3.5a3.51 3.51 0 0 0-3.5 3.5c0 .786.265 1.51.706 2.095A3.498 3.498 0 0 0 11 17Z" clip-rule="evenodd"/><path stroke="#302B44" stroke-linecap="round" stroke-linejoin="round" stroke-width="1.5" d="M16.45 13a3.5 3.5 0 1 0-4.95-4.95"/></svg>