<?xml version="1.0" standalone="no"?>
<!DOCTYPE svg PUBLIC "-//W3C//DTD SVG 20010904//EN"
 "http://www.w3.org/TR/2001/REC-SVG-20010904/DTD/svg10.dtd">
<svg version="1.0" xmlns="http://www.w3.org/2000/svg"
 width="608.000000pt" height="608.000000pt" viewBox="0 0 608.000000 608.000000"
 preserveAspectRatio="xMidYMid meet">
<metadata>
Created by potrace 1.14, written by Peter Selinger 2001-2017
</metadata>
<g transform="translate(0.000000,608.000000) scale(0.100000,-0.100000)"
fill="#000000" stroke="none">
<path d="M1895 5729 c-238 -25 -445 -119 -600 -274 -71 -71 -159 -185 -182
-235 -4 -8 -26 -47 -50 -86 -24 -39 -43 -74 -43 -77 0 -3 -13 -26 -30 -50 -16
-24 -42 -67 -57 -96 -37 -69 -49 -90 -112 -196 -30 -49 -63 -106 -74 -125 -10
-19 -83 -145 -162 -280 -79 -135 -152 -261 -163 -280 -11 -19 -59 -102 -107
-185 -48 -82 -97 -166 -107 -185 -11 -19 -24 -39 -28 -45 -4 -5 -30 -53 -58
-105 -51 -98 -93 -213 -109 -305 -9 -50 -10 -266 -2 -311 6 -27 11 -58 13 -69
9 -66 78 -232 133 -318 15 -23 28 -44 28 -47 0 -3 8 -16 17 -30 8 -14 58 -99
111 -190 52 -91 104 -181 116 -200 11 -19 24 -42 28 -50 3 -8 14 -26 23 -40
10 -14 28 -45 42 -70 50 -91 152 -266 168 -290 6 -8 13 -22 17 -30 4 -8 18
-33 32 -55 14 -22 31 -51 38 -65 7 -14 17 -32 23 -40 9 -14 224 -383 269 -463
93 -164 134 -220 222 -307 151 -148 333 -239 554 -276 55 -9 2144 -11 2225 -2
95 11 118 15 190 37 195 57 381 186 504 351 23 30 44 56 48 58 5 2 8 12 8 23
0 10 4 19 8 19 4 0 20 24 35 52 15 29 32 60 37 68 27 42 110 182 110 185 0 1
52 91 115 199 63 109 115 201 115 207 0 5 5 9 10 9 6 0 10 4 10 9 0 7 27 57
60 111 53 86 100 171 100 179 0 6 5 11 10 11 6 0 10 4 10 9 0 5 36 69 79 144
43 74 90 154 104 178 13 24 64 111 112 194 149 256 168 303 199 502 38 242
-32 417 -201 503 -97 49 -69 48 -1270 48 -1221 0 -1175 2 -1267 -52 -115 -68
-176 -171 -181 -309 -3 -90 14 -147 63 -218 32 -47 86 -99 102 -99 5 0 10 -4
10 -8 0 -8 85 -42 125 -50 11 -3 406 -5 878 -5 471 -1 857 -3 857 -4 0 -2 -33
-61 -74 -131 -41 -70 -82 -141 -92 -159 -23 -39 -274 -469 -291 -498 -6 -11
-20 -36 -31 -55 -10 -19 -71 -123 -134 -231 -63 -108 -118 -203 -121 -210 -4
-8 -17 -30 -28 -49 -98 -163 -122 -199 -149 -223 -68 -61 -18 -59 -1140 -59
-564 0 -1041 3 -1060 7 -41 7 -108 48 -132 79 -15 21 -208 346 -208 351 0 2
-17 32 -38 66 -22 35 -50 84 -64 109 -26 47 -81 141 -101 175 -7 11 -27 43
-45 72 -17 30 -32 56 -32 58 0 3 -20 38 -44 78 -42 70 -354 607 -394 678 -11
20 -38 66 -60 102 -78 129 -84 197 -25 307 21 39 44 83 52 98 8 15 18 29 22
32 4 3 13 17 18 30 6 14 23 43 36 65 14 22 28 47 32 55 4 8 21 38 38 65 17 28
35 57 38 65 4 8 15 29 26 45 30 49 233 398 332 572 17 30 48 83 76 128 6 11
40 70 75 130 34 61 67 118 73 127 5 10 48 83 94 162 107 186 142 222 231 241
19 4 492 8 1052 8 820 0 1027 -3 1065 -14 54 -15 125 -79 159 -144 25 -47 46
-84 106 -185 24 -41 47 -82 51 -90 4 -8 13 -24 20 -35 50 -82 117 -198 117
-201 0 -3 15 -28 33 -57 18 -29 52 -86 76 -127 76 -135 87 -152 127 -193 46
-47 152 -100 206 -102 21 -1 40 -4 43 -7 3 -3 31 -1 63 4 198 31 330 189 321
387 -4 72 -9 88 -53 175 -27 53 -53 96 -58 96 -4 0 -8 4 -8 9 0 5 -23 49 -51
98 -29 48 -61 106 -73 128 -12 22 -24 42 -28 43 -5 2 -8 8 -8 14 0 5 -14 29
-30 53 -17 24 -30 47 -30 51 0 5 -50 93 -100 174 -5 8 -33 57 -62 108 -146
255 -304 397 -553 495 -43 17 -72 26 -107 33 -22 4 -47 9 -98 21 -34 8 -2140
10 -2215 2z"/>
<path d="M2472 4705 c-75 -21 -95 -33 -165 -97 -24 -23 -147 -210 -147 -225 0
-3 -8 -17 -19 -31 -10 -15 -27 -43 -38 -62 -32 -59 -284 -483 -304 -512 -10
-15 -19 -30 -19 -33 0 -5 -40 -73 -78 -131 -6 -10 -15 -26 -19 -34 -3 -8 -21
-39 -40 -68 -18 -29 -33 -56 -33 -61 0 -5 -6 -16 -14 -23 -7 -8 -23 -32 -35
-54 -27 -50 -50 -89 -84 -141 -15 -24 -27 -44 -27 -47 0 -2 -18 -33 -40 -67
-22 -35 -43 -71 -47 -79 -4 -8 -19 -35 -33 -60 -24 -40 -32 -61 -47 -120 -16
-62 4 -178 42 -247 36 -63 127 -149 168 -157 7 -2 25 -8 41 -15 42 -17 158
-22 203 -8 21 6 40 11 43 12 12 4 57 26 74 37 64 42 110 101 197 255 16 29
288 487 582 983 61 102 118 199 127 215 10 17 50 85 89 151 40 67 74 130 76
140 2 11 8 35 13 54 22 91 -6 212 -68 294 -88 116 -256 171 -398 131z"/>
</g>
</svg>
